<mxfile host="Electron" modified="2024-09-26T01:45:52.604Z" agent="Mozilla/5.0 (Windows NT 10.0; Win64; x64) AppleWebKit/537.36 (KHTML, like Gecko) draw.io/21.6.8 Chrome/114.0.5735.289 Electron/25.5.0 Safari/537.36" etag="lqeLJXsD55smmEQHZ6LN" version="21.6.8" type="device">
  <diagram name="第 1 页" id="P7c6FvEwj9ApxSecfXY5">
    <mxGraphModel dx="780" dy="591" grid="1" gridSize="10" guides="1" tooltips="1" connect="1" arrows="1" fold="1" page="1" pageScale="1" pageWidth="827" pageHeight="1169" math="0" shadow="0">
      <root>
        <mxCell id="0" />
        <mxCell id="1" parent="0" />
        <mxCell id="dTV-B9cpsnrmzZdMv_JM-1" value="" style="rounded=0;whiteSpace=wrap;html=1;fillColor=#a80000;fontSize=24;" vertex="1" parent="1">
          <mxGeometry x="110" y="160" width="20" height="60" as="geometry" />
        </mxCell>
        <mxCell id="dTV-B9cpsnrmzZdMv_JM-2" value="Wait" style="rounded=0;whiteSpace=wrap;html=1;gradientColor=none;fillColor=#878787;fontSize=24;" vertex="1" parent="1">
          <mxGeometry x="160" y="80" width="70" height="60" as="geometry" />
        </mxCell>
        <mxCell id="dTV-B9cpsnrmzZdMv_JM-3" value="Pass" style="rounded=0;whiteSpace=wrap;html=1;fillColor=#1f8f00;fontSize=24;" vertex="1" parent="1">
          <mxGeometry x="300" y="80" width="70" height="60" as="geometry" />
        </mxCell>
        <mxCell id="dTV-B9cpsnrmzZdMv_JM-5" value="&lt;font style=&quot;font-size: 24px;&quot;&gt;Start&lt;br&gt;&lt;/font&gt;" style="rounded=0;whiteSpace=wrap;html=1;fillColor=#0087a8;" vertex="1" parent="1">
          <mxGeometry x="90" y="80" width="70" height="60" as="geometry" />
        </mxCell>
        <mxCell id="dTV-B9cpsnrmzZdMv_JM-6" value="" style="rounded=0;whiteSpace=wrap;html=1;fillColor=#0087a8;" vertex="1" parent="1">
          <mxGeometry x="90" y="160" width="20" height="60" as="geometry" />
        </mxCell>
        <mxCell id="dTV-B9cpsnrmzZdMv_JM-29" value="" style="edgeStyle=orthogonalEdgeStyle;rounded=0;orthogonalLoop=1;jettySize=auto;html=1;" edge="1" parent="1" source="dTV-B9cpsnrmzZdMv_JM-7" target="dTV-B9cpsnrmzZdMv_JM-30">
          <mxGeometry relative="1" as="geometry">
            <mxPoint x="145" y="260" as="targetPoint" />
            <Array as="points">
              <mxPoint x="145" y="250" />
              <mxPoint x="205" y="250" />
            </Array>
          </mxGeometry>
        </mxCell>
        <mxCell id="dTV-B9cpsnrmzZdMv_JM-7" value="" style="rounded=0;whiteSpace=wrap;html=1;gradientColor=none;fillColor=#878787;fontSize=24;" vertex="1" parent="1">
          <mxGeometry x="130" y="160" width="30" height="60" as="geometry" />
        </mxCell>
        <mxCell id="dTV-B9cpsnrmzZdMv_JM-8" value="" style="rounded=0;whiteSpace=wrap;html=1;fillColor=#a80000;fontSize=24;" vertex="1" parent="1">
          <mxGeometry x="160" y="160" width="20" height="60" as="geometry" />
        </mxCell>
        <mxCell id="dTV-B9cpsnrmzZdMv_JM-31" value="" style="edgeStyle=orthogonalEdgeStyle;rounded=0;orthogonalLoop=1;jettySize=auto;html=1;" edge="1" parent="1" source="dTV-B9cpsnrmzZdMv_JM-9" target="dTV-B9cpsnrmzZdMv_JM-30">
          <mxGeometry relative="1" as="geometry" />
        </mxCell>
        <mxCell id="dTV-B9cpsnrmzZdMv_JM-9" value="" style="rounded=0;whiteSpace=wrap;html=1;gradientColor=none;fillColor=#878787;fontSize=24;" vertex="1" parent="1">
          <mxGeometry x="180" y="160" width="50" height="60" as="geometry" />
        </mxCell>
        <mxCell id="dTV-B9cpsnrmzZdMv_JM-10" value="" style="rounded=0;whiteSpace=wrap;html=1;fillColor=#a80000;fontSize=24;" vertex="1" parent="1">
          <mxGeometry x="230" y="160" width="20" height="60" as="geometry" />
        </mxCell>
        <mxCell id="dTV-B9cpsnrmzZdMv_JM-32" style="edgeStyle=orthogonalEdgeStyle;rounded=0;orthogonalLoop=1;jettySize=auto;html=1;entryX=0.5;entryY=0;entryDx=0;entryDy=0;" edge="1" parent="1" source="dTV-B9cpsnrmzZdMv_JM-11" target="dTV-B9cpsnrmzZdMv_JM-30">
          <mxGeometry relative="1" as="geometry">
            <mxPoint x="240" y="270" as="targetPoint" />
            <Array as="points">
              <mxPoint x="280" y="250" />
              <mxPoint x="205" y="250" />
            </Array>
          </mxGeometry>
        </mxCell>
        <mxCell id="dTV-B9cpsnrmzZdMv_JM-11" value="" style="rounded=0;whiteSpace=wrap;html=1;gradientColor=none;fillColor=#878787;fontSize=24;" vertex="1" parent="1">
          <mxGeometry x="250" y="160" width="90" height="60" as="geometry" />
        </mxCell>
        <mxCell id="dTV-B9cpsnrmzZdMv_JM-12" value="Fail" style="rounded=0;whiteSpace=wrap;html=1;fillColor=#a80000;fontSize=24;" vertex="1" parent="1">
          <mxGeometry x="230" y="80" width="70" height="60" as="geometry" />
        </mxCell>
        <mxCell id="dTV-B9cpsnrmzZdMv_JM-13" value="" style="rounded=0;whiteSpace=wrap;html=1;fillColor=#1f8f00;fontSize=24;" vertex="1" parent="1">
          <mxGeometry x="340" y="160" width="20" height="60" as="geometry" />
        </mxCell>
        <mxCell id="dTV-B9cpsnrmzZdMv_JM-41" value="" style="edgeStyle=orthogonalEdgeStyle;rounded=0;orthogonalLoop=1;jettySize=auto;html=1;" edge="1" parent="1" source="dTV-B9cpsnrmzZdMv_JM-15" target="dTV-B9cpsnrmzZdMv_JM-39">
          <mxGeometry relative="1" as="geometry" />
        </mxCell>
        <mxCell id="dTV-B9cpsnrmzZdMv_JM-15" value="" style="rounded=0;whiteSpace=wrap;html=1;gradientColor=none;fillColor=#878787;fontSize=24;" vertex="1" parent="1">
          <mxGeometry x="360" y="160" width="70" height="60" as="geometry" />
        </mxCell>
        <mxCell id="dTV-B9cpsnrmzZdMv_JM-16" value="" style="rounded=0;whiteSpace=wrap;html=1;fillColor=#0087a8;" vertex="1" parent="1">
          <mxGeometry x="430" y="160" width="20" height="60" as="geometry" />
        </mxCell>
        <mxCell id="dTV-B9cpsnrmzZdMv_JM-17" value="&lt;font style=&quot;font-size: 24px;&quot;&gt;Eth1&lt;/font&gt;" style="rounded=0;whiteSpace=wrap;html=1;fillColor=#0087a8;" vertex="1" parent="1">
          <mxGeometry x="90" y="364" width="60" height="60" as="geometry" />
        </mxCell>
        <mxCell id="dTV-B9cpsnrmzZdMv_JM-18" value="" style="rounded=0;whiteSpace=wrap;html=1;fillColor=#a80000;fontSize=24;" vertex="1" parent="1">
          <mxGeometry x="150" y="364" width="20" height="60" as="geometry" />
        </mxCell>
        <mxCell id="dTV-B9cpsnrmzZdMv_JM-33" value="" style="edgeStyle=orthogonalEdgeStyle;rounded=0;orthogonalLoop=1;jettySize=auto;html=1;" edge="1" parent="1" source="dTV-B9cpsnrmzZdMv_JM-19" target="dTV-B9cpsnrmzZdMv_JM-30">
          <mxGeometry relative="1" as="geometry">
            <Array as="points">
              <mxPoint x="185" y="340" />
              <mxPoint x="205" y="340" />
            </Array>
          </mxGeometry>
        </mxCell>
        <mxCell id="dTV-B9cpsnrmzZdMv_JM-19" value="" style="rounded=0;whiteSpace=wrap;html=1;gradientColor=none;fillColor=#878787;fontSize=24;" vertex="1" parent="1">
          <mxGeometry x="170" y="364" width="30" height="60" as="geometry" />
        </mxCell>
        <mxCell id="dTV-B9cpsnrmzZdMv_JM-20" value="" style="rounded=0;whiteSpace=wrap;html=1;fillColor=#a80000;fontSize=24;" vertex="1" parent="1">
          <mxGeometry x="200" y="364" width="20" height="60" as="geometry" />
        </mxCell>
        <mxCell id="dTV-B9cpsnrmzZdMv_JM-34" value="" style="edgeStyle=orthogonalEdgeStyle;rounded=0;orthogonalLoop=1;jettySize=auto;html=1;" edge="1" parent="1" source="dTV-B9cpsnrmzZdMv_JM-21" target="dTV-B9cpsnrmzZdMv_JM-30">
          <mxGeometry relative="1" as="geometry">
            <Array as="points">
              <mxPoint x="245" y="340" />
              <mxPoint x="205" y="340" />
            </Array>
          </mxGeometry>
        </mxCell>
        <mxCell id="dTV-B9cpsnrmzZdMv_JM-21" value="" style="rounded=0;whiteSpace=wrap;html=1;gradientColor=none;fillColor=#878787;fontSize=24;" vertex="1" parent="1">
          <mxGeometry x="220" y="364" width="50" height="60" as="geometry" />
        </mxCell>
        <mxCell id="dTV-B9cpsnrmzZdMv_JM-22" value="" style="rounded=0;whiteSpace=wrap;html=1;fillColor=#1f8f00;fontSize=24;" vertex="1" parent="1">
          <mxGeometry x="270" y="364" width="20" height="60" as="geometry" />
        </mxCell>
        <mxCell id="dTV-B9cpsnrmzZdMv_JM-37" value="" style="edgeStyle=orthogonalEdgeStyle;rounded=0;orthogonalLoop=1;jettySize=auto;html=1;entryX=0.5;entryY=1;entryDx=0;entryDy=0;" edge="1" parent="1" source="dTV-B9cpsnrmzZdMv_JM-23" target="dTV-B9cpsnrmzZdMv_JM-38">
          <mxGeometry relative="1" as="geometry">
            <mxPoint x="325" y="340" as="targetPoint" />
          </mxGeometry>
        </mxCell>
        <mxCell id="dTV-B9cpsnrmzZdMv_JM-23" value="" style="rounded=0;whiteSpace=wrap;html=1;gradientColor=none;fillColor=#878787;fontSize=24;" vertex="1" parent="1">
          <mxGeometry x="290" y="364" width="70" height="60" as="geometry" />
        </mxCell>
        <mxCell id="dTV-B9cpsnrmzZdMv_JM-24" value="&lt;font style=&quot;font-size: 24px;&quot;&gt;Eth2&lt;/font&gt;" style="rounded=0;whiteSpace=wrap;html=1;fillColor=#0087a8;" vertex="1" parent="1">
          <mxGeometry x="360" y="364" width="60" height="60" as="geometry" />
        </mxCell>
        <mxCell id="dTV-B9cpsnrmzZdMv_JM-25" value="" style="rounded=0;whiteSpace=wrap;html=1;fillColor=#1f8f00;fontSize=24;" vertex="1" parent="1">
          <mxGeometry x="420" y="364" width="20" height="60" as="geometry" />
        </mxCell>
        <mxCell id="dTV-B9cpsnrmzZdMv_JM-40" value="" style="edgeStyle=orthogonalEdgeStyle;rounded=0;orthogonalLoop=1;jettySize=auto;html=1;" edge="1" parent="1" source="dTV-B9cpsnrmzZdMv_JM-26" target="dTV-B9cpsnrmzZdMv_JM-39">
          <mxGeometry relative="1" as="geometry" />
        </mxCell>
        <mxCell id="dTV-B9cpsnrmzZdMv_JM-26" value="" style="rounded=0;whiteSpace=wrap;html=1;gradientColor=none;fillColor=#878787;fontSize=24;" vertex="1" parent="1">
          <mxGeometry x="440" y="364" width="70" height="60" as="geometry" />
        </mxCell>
        <mxCell id="dTV-B9cpsnrmzZdMv_JM-30" value="Backoff" style="rounded=0;whiteSpace=wrap;html=1;gradientColor=none;fillColor=none;fontSize=24;strokeColor=none;" vertex="1" parent="1">
          <mxGeometry x="170" y="280" width="70" height="30" as="geometry" />
        </mxCell>
        <mxCell id="dTV-B9cpsnrmzZdMv_JM-38" value="Interfaces&lt;br&gt;Interval" style="rounded=0;whiteSpace=wrap;html=1;gradientColor=none;fillColor=none;fontSize=24;strokeColor=none;" vertex="1" parent="1">
          <mxGeometry x="270" y="260" width="110" height="70" as="geometry" />
        </mxCell>
        <mxCell id="dTV-B9cpsnrmzZdMv_JM-39" value="Guardian&lt;br&gt;Duration" style="rounded=0;whiteSpace=wrap;html=1;gradientColor=none;fillColor=none;fontSize=24;strokeColor=none;" vertex="1" parent="1">
          <mxGeometry x="420" y="260" width="110" height="70" as="geometry" />
        </mxCell>
        <mxCell id="dTV-B9cpsnrmzZdMv_JM-42" value="&lt;font style=&quot;font-size: 24px;&quot;&gt;Eth1&lt;/font&gt;" style="rounded=0;whiteSpace=wrap;html=1;fillColor=#0087a8;" vertex="1" parent="1">
          <mxGeometry x="510" y="364" width="60" height="60" as="geometry" />
        </mxCell>
      </root>
    </mxGraphModel>
  </diagram>
</mxfile>
